# xmcd
#
# Track frame offsets: 
#        182
#        18702
#        42655
#        62720
#        84657
#        111735
#        126050
#        152162
#        170265
#        190687
#        212172
#        226275
#
# Disc length: 3346 seconds
#
# Revision: 2
# Processed by: cddbd v1.5.2PL0 Copyright (c) Steve Scherf et al.
# Submitted via: ExactAudioCopy v0.95b4
#
DISCID=a90d100c
DTITLE=Johnnie Taylor - Good Love
DYEAR=1996
DGENRE=R&B
TTITLE0=Good Love
TTITLE1=Last Two Dollars
TTITLE2=Sending You A Kiss
TTITLE3=Walk Away With Me
TTITLE4=Too Many Memories
TTITLE5=Ain't That Loving You
TTITLE6=Too Late To Try To Do Right
TTITLE7=Whole Lotta Lovin'
TTITLE8=You Got Me In The Mood For Love
TTITLE9=Slide On
TTITLE10=Body Rock
TTITLE11=This Masquerade
EXTD=Malaco Records, Jackson Ms
EXTT0=
EXTT1=
EXTT2=
EXTT3=
EXTT4=
EXTT5=
EXTT6=
EXTT7=
EXTT8=
EXTT9=
EXTT10=
EXTT11=
PLAYORDER=
